# xmcd
#
# Track frame offsets: 
#        150
#        15285
#        36120
#        61440
#        73992
#        98735
#        114887
#        135832
#        155592
#        174062
#        192002
#        209097
#        234195
#        259062
#        275530
#
# Disc length: 4006 seconds
#
# Revision: 1
# Processed by: cddbd v1.5.2PL0 Copyright (c) Steve Scherf et al.
# Submitted via: ExactAudioCopy v1.3
#
DISCID=c10fa40f
DTITLE=Johnny Clegg - Best of live
DYEAR=1900
DGENRE=
TTITLE0=Bullets for Bafazana
TTITLE1=I call your name
TTITLE2=Giyani
TTITLE3=Into the picture
TTITLE4=The crossing
TTITLE5=Colours of change
TTITLE6=Great heart
TTITLE7=Gruel crazy beautiful world
TTITLE8=Impi
TTITLE9=Scatterlings of Africa
TTITLE10=Tatazela
TTITLE11=Dela
TTITLE12=December African rain
TTITLE13=Umfazi Omdala
TTITLE14=Asimbonanga
EXTD=
EXTT0=
EXTT1=
EXTT2=
EXTT3=
EXTT4=
EXTT5=
EXTT6=
EXTT7=
EXTT8=
EXTT9=
EXTT10=
EXTT11=
EXTT12=
EXTT13=
EXTT14=
PLAYORDER=
